<?xml version="1.0" encoding="UTF-8"?>
<svg version="1.1" xmlns="http://www.w3.org/2000/svg" width="469" height="194">
<path d="M0 0 C154.77 0 309.54 0 469 0 C469 64.02 469 128.04 469 194 C314.23 194 159.46 194 0 194 C0 129.98 0 65.96 0 0 Z " fill="#FDFDFD" transform="translate(0,0)"/>
<path d="M0 0 C26.73 0 53.46 0 81 0 C81.495 9.405 81.495 9.405 82 19 C62.86 19 43.72 19 24 19 C24.33 26.92 24.66 34.84 25 43 C49.255 43.495 49.255 43.495 74 44 C74.495 52.91 74.495 52.91 75 62 C58.17 62 41.34 62 24 62 C24.33 70.58 24.66 79.16 25 88 C54.205 88.495 54.205 88.495 84 89 C84 94.94 84 100.88 84 107 C56.28 107 28.56 107 0 107 C0 71.69 0 36.38 0 0 Z " fill="#000000" transform="translate(246,45)"/>
<path d="M0 0 C-0.47122748 6.9113364 -3.20636006 12.72204161 -6 19 C-10.67355607 18.18720764 -14.86353953 16.62516467 -19.28125 14.9375 C-24.81996567 13.02759805 -30.00598575 12.78835848 -35.8125 12.75 C-36.58142578 12.729375 -37.35035156 12.70875 -38.14257812 12.6875 C-43.7538932 12.6496177 -47.89668099 13.62218982 -53 16 C-55.61858353 19.49144471 -56.02281344 21.32700347 -55.875 25.6875 C-54.97401254 29.09838109 -54.62580739 29.87466043 -52 32 C-43.37517857 36.03181026 -33.78259509 37.99069429 -24.58398438 40.26757812 C-13.66195209 43.08679142 -3.18521085 46.77773709 3.09375 56.734375 C6.32294939 63.73097367 6.10343304 72.57440298 4.2734375 79.9140625 C0.30522554 90.59274673 -6.69963925 95.48018321 -16.625 100.265625 C-33.82127352 106.90114358 -56.17885498 104.48967856 -72.85546875 97.3984375 C-75.94525133 96.00091526 -78.98406633 94.54928099 -82 93 C-81.38580345 88.45218513 -80.21066249 84.46685365 -78.5625 80.1875 C-77.91474609 78.47626953 -77.91474609 78.47626953 -77.25390625 76.73046875 C-76 74 -76 74 -74 73 C-71.79515991 74.01992603 -69.69423065 75.09413705 -67.5625 76.25 C-58.31307379 81.00533477 -50.24956838 83.23151688 -39.8125 83.375 C-39.06387695 83.38909912 -38.31525391 83.40319824 -37.54394531 83.41772461 C-32.09311462 83.37019529 -27.97607541 82.24901225 -23 80 C-20.22463705 76.97233132 -19.99027503 75.55432326 -20.0625 71.4375 C-21.10940668 67.59884219 -22.02140194 66.52766648 -25 64 C-32.03737349 60.577809 -39.86595848 58.94140516 -47.4375 57.125 C-71.25624488 51.10156179 -71.25624488 51.10156179 -78 40 C-81.87528238 31.37122377 -82.19112451 22.50861762 -79.234375 13.5546875 C-75.10364508 5.0056452 -67.34118295 -1.62955779 -58.5234375 -4.92578125 C-39.35302054 -11.03598968 -17.95211464 -8.75122351 0 0 Z " fill="#000000" transform="translate(223,51)"/>
<path d="M0 0 C-1.98 5.94 -3.96 11.88 -6 18 C-9.64798089 17.27040382 -12.7141014 16.39723301 -16.16430664 15.1328125 C-23.16677114 12.64955775 -29.6235373 11.51237643 -37.0625 11.5 C-37.84705566 11.49411865 -38.63161133 11.4882373 -39.43994141 11.48217773 C-45.35349312 11.60930328 -49.89147453 12.92764969 -54.875 16.25 C-56.69903 19.08738 -56.82792905 21.67329503 -57 25 C-56.17831655 28.02508039 -55.62739872 29.56478863 -53.0234375 31.37109375 C-45.841962 34.26274982 -38.6517953 36.10108032 -31.125 37.875 C-18.99341303 40.77057826 -7.47184673 43.86808376 0.765625 53.91015625 C5.05535186 61.17282673 4.81321304 69.36054433 3.640625 77.4921875 C1.56130498 85.3879838 -4.18848886 91.51534556 -10.90625 95.89453125 C-27.07107246 104.45605449 -47.69862387 104.27384543 -65.05859375 99.35546875 C-71.38971406 97.32063441 -77.22139366 94.26019629 -83 91 C-82.04864681 88.20577397 -81.08930407 85.41475411 -80.125 82.625 C-79.85558594 81.8309375 -79.58617187 81.036875 -79.30859375 80.21875 C-79.04433594 79.45820313 -78.78007812 78.69765625 -78.5078125 77.9140625 C-78.14647217 76.8614624 -78.14647217 76.8614624 -77.77783203 75.78759766 C-77 74 -77 74 -75 72 C-73.94941406 72.55429688 -72.89882813 73.10859375 -71.81640625 73.6796875 C-70.39871868 74.41200293 -68.98073379 75.14374297 -67.5625 75.875 C-66.87478516 76.23980469 -66.18707031 76.60460937 -65.47851562 76.98046875 C-57.32684686 81.15108998 -49.53141242 82.36024913 -40.4375 82.375 C-39.63892578 82.39949219 -38.84035156 82.42398438 -38.01757812 82.44921875 C-32.29172493 82.47721803 -27.71409254 81.3738323 -23 78 C-20.23560896 73.85341344 -20.79534348 70.52409705 -21.1875 65.6875 C-22.42994274 63.107042 -24.35734961 62.95091186 -27 62 C-32.82209002 60.04507535 -38.68859546 58.30241978 -44.65234375 56.83984375 C-68.72472759 50.91807586 -68.72472759 50.91807586 -76 42 C-76.556875 41.38125 -77.11375 40.7625 -77.6875 40.125 C-82.00229344 33.13914396 -82.00573266 24.39207929 -80.53515625 16.5078125 C-77.80051432 7.15501347 -72.1957511 1.39843374 -63.9375 -3.52734375 C-45.03351935 -13.00447235 -17.76773366 -10.6606402 0 0 Z " fill="#000000" transform="translate(425,52)"/>
<path d="M0 0 C3.51429847 2.82993508 6.80325373 5.81739862 10 9 C9.62230756 13.53230926 6.36204445 15.89403439 3.1875 18.75 C2.65318359 19.25660156 2.11886719 19.76320313 1.56835938 20.28515625 C-1.60260952 23.17920166 -2.55175487 24 -7 24 C-8.66666667 22.33333333 -10.33333333 20.66666667 -12 19 C-21.16351612 13.07163204 -29.19700738 12.08467255 -40 13 C-48.32822582 15.0651684 -54.87359228 19.08243778 -60 26 C-65.61013128 35.94448926 -66.46897609 47.00996111 -64.421875 58.14453125 C-61.90873794 66.12945308 -56.77168461 73.11869524 -49.5546875 77.4765625 C-40.25441741 81.74302304 -30.09103843 82.65079792 -20.25 79.5 C-14.49771494 77.16867742 -10.31056825 73.3850719 -6 69 C-2.90296672 70.36892937 -0.88238392 71.92117359 1.4375 74.375 C4.13669429 77.16145273 6.90108063 79.65233381 10 82 C6.22423441 90.7133052 -2.42951384 95.08085637 -10.69140625 98.7734375 C-25.60969979 104.3039501 -44.31412998 104.32593385 -59 98 C-72.09509424 91.7453903 -81.80096378 82.4085201 -87.2890625 68.8046875 C-92.61883083 53.19881907 -92.8241336 37.02016476 -85.8125 21.8125 C-78.09648385 7.62424345 -66.07993972 -2.29381319 -50.61328125 -7.0390625 C-33.31465868 -11.18453308 -15.19929514 -9.77097545 0 0 Z " fill="#000000" transform="translate(122,52)"/>
</svg>
