<?xml version="1.0" encoding="UTF-8"?>
<svg version="1.1" xmlns="http://www.w3.org/2000/svg" width="483" height="515">
<path d="M0 0 C159.39 0 318.78 0 483 0 C483 169.95 483 339.9 483 515 C323.61 515 164.22 515 0 515 C0 345.05 0 175.1 0 0 Z " fill="#000000" transform="translate(0,0)"/>
<path d="M0 0 C1.18335938 0.38414063 2.36671875 0.76828125 3.5859375 1.1640625 C28.38747189 9.57374151 50.36909669 23.77856709 69 42 C69.7734375 42.7115625 70.546875 43.423125 71.34375 44.15625 C100.07798931 71.22473631 118.02516504 112.79979893 119.22853088 152.02268982 C120.36852028 198.74971682 107.73057764 243.38835468 75 278 C73.87015459 279.3292299 72.74495361 280.66242507 71.625 282 C44.81175655 312.46959483 2.40674842 330.64270287 -37.63232422 333.85498047 C-82.6009889 336.60929959 -127.73964501 323.90150294 -162.28515625 294.2421875 C-164.7484005 292.01585607 -167.16286716 289.75645573 -169.53320312 287.43164062 C-171.07210882 285.92961949 -172.63627044 284.45718067 -174.203125 282.984375 C-196.40006316 261.82560099 -211.51974201 233.66926066 -219 204 C-219.19609863 203.23461914 -219.39219727 202.46923828 -219.59423828 201.68066406 C-225.62924438 176.87940432 -226.20334796 146.60506984 -219 122 C-218.72091797 121.03465332 -218.44183594 120.06930664 -218.15429688 119.07470703 C-214.29705214 106.06776659 -209.58606422 93.8575983 -203 82 C-202.18982422 80.47632813 -202.18982422 80.47632813 -201.36328125 78.921875 C-180.66949303 41.4425685 -143.41960146 11.38570468 -102.37695312 -0.77734375 C-96.30168645 -2.43872488 -90.17463367 -3.76746191 -84 -5 C-83.22366211 -5.16371094 -82.44732422 -5.32742187 -81.64746094 -5.49609375 C-54.81792398 -11.05733396 -25.89965682 -8.88528373 0 0 Z " fill="#010101" transform="translate(294,82)"/>
<path d="M0 0 C0.3721171 9.0834333 0.6556577 18.16421626 0.82899475 27.25362968 C0.912234 31.47555001 1.02488051 35.69223039 1.20703125 39.91113281 C2.35182052 67.12753294 2.35182052 67.12753294 -1.49316406 73.45861816 C-5.07783677 77.03646247 -9.07259568 78.7837484 -13.86376953 80.23199463 C-17.00254928 81.36043079 -19.60345894 83.14873357 -22.35131836 85.01364136 C-24 86 -24 86 -26 86 C-26 73.13 -26 60.26 -26 47 C-45.29180627 58.70138928 -45.29180627 58.70138928 -64.5625 70.4375 C-65.28614746 70.87876221 -66.00979492 71.32002441 -66.75537109 71.7746582 C-69.53592219 73.47403484 -72.2881687 75.19211246 -75 77 C-75.31272311 80.06058026 -75.43006314 82.92045905 -75.41992188 85.98510742 C-75.43262619 87.38317879 -75.43262619 87.38317879 -75.44558716 88.80949402 C-75.46908601 91.90828933 -75.4699752 95.00659082 -75.46875 98.10546875 C-75.4758512 100.26386209 -75.48355014 102.42225353 -75.49182129 104.5806427 C-75.50530092 109.11948878 -75.50682255 113.65816094 -75.50097656 118.19702148 C-75.49512122 123.97795745 -75.52548205 129.75804169 -75.56609344 135.53881359 C-75.59213256 140.00621434 -75.59483241 144.47341557 -75.59120178 148.94088173 C-75.59288243 151.06926907 -75.60242189 153.1976667 -75.62034607 155.32597923 C-75.7612169 174.1454683 -73.24802444 190.1120314 -59.9375 204.5625 C-50.23297769 213.64022689 -37.89017756 220.73988162 -27 228 C-26.67 201.93 -26.34 175.86 -26 149 C-34.25 149 -42.5 149 -51 149 C-51 140.75 -51 132.5 -51 124 C-34.17 124 -17.34 124 0 124 C0 174.16 0 224.32 0 276 C-3.31114353 274.67554259 -5.64496787 273.73786489 -8.4921875 271.875 C-9.52110107 271.20537231 -9.52110107 271.20537231 -10.57080078 270.5222168 C-11.33118652 270.01988525 -12.09157227 269.51755371 -12.875 269 C-14.11032471 268.18946167 -14.11032471 268.18946167 -15.37060547 267.36254883 C-17.93901103 265.67273764 -20.50348037 263.97709645 -23.06665039 262.27935791 C-25.24036207 260.8409449 -27.41602231 259.40550549 -29.59179688 257.97021484 C-33.89665808 255.12939653 -38.19713181 252.28202551 -42.49517822 249.4309082 C-44.2345887 248.27778729 -45.97493121 247.12607094 -47.71624756 245.97583008 C-73.15067467 229.16368655 -94.8567672 211.8645652 -101.32894897 180.49407959 C-104.02152465 164.36721874 -103.34398588 147.38753214 -103.59351063 131.08789253 C-103.69577786 124.43345416 -103.84906631 117.79371127 -104.1262207 111.14404297 C-105.93121614 66.76631186 -105.93121614 66.76631186 -99.57095337 58.10693359 C-94.07102995 52.15666856 -86.72158356 49.34859878 -79.10379028 47.00653076 C-75.00344662 45.67682687 -71.9971759 43.77775237 -68.44140625 41.359375 C-67.44987549 40.75077637 -66.45834473 40.14217773 -65.43676758 39.51513672 C-56.27682334 33.88985881 -47.14878465 28.22142524 -38.07763672 22.45410156 C-30.69288779 17.77373938 -23.22123787 13.23832815 -15.73754883 8.71826172 C-10.02607677 5.26705627 -10.02607677 5.26705627 -4.45703125 1.59375 C-2 0 -2 0 0 0 Z " fill="#7A7B79" transform="translate(238,107)"/>
<path d="M0 0 C11.6193296 6.27261865 11.6193296 6.27261865 16.41015625 9.3046875 C17.3232959 9.87952881 18.23643555 10.45437012 19.17724609 11.04663086 C20.60544678 11.95167358 20.60544678 11.95167358 22.0625 12.875 C24.18049304 14.20782063 26.29900052 15.53982406 28.41796875 16.87109375 C29.50255371 17.55284668 30.58713867 18.23459961 31.70458984 18.93701172 C37.07660348 22.29999255 42.47482165 25.61999683 47.875 28.9375 C48.94532471 29.59548584 50.01564941 30.25347168 51.1184082 30.93139648 C55.56175439 33.66200568 60.00623102 36.39076689 64.45214844 39.1171875 C65.02618408 39.46936844 65.60021973 39.82154938 66.19165039 40.18440247 C67.34596181 40.89211543 68.50074388 41.59906134 69.65600586 42.30522156 C72.4633978 44.02332963 75.256971 45.75919683 78.03613281 47.52270508 C83.11394589 50.73224396 87.91478974 53.69389124 93.64404297 55.57299805 C96.79603544 57.24688707 98.73684641 59.24995634 101 62 C101.74707031 65.42163086 101.74707031 65.42163086 101.828125 69.21484375 C101.84722931 69.88434555 101.86633362 70.55384735 101.88601685 71.24363708 C102.02320711 78.17814298 101.58772239 85.09264724 101 92 C96.59808948 90.30149548 92.61225553 88.15487013 88.5625 85.75 C87.82660645 85.31526367 87.09071289 84.88052734 86.33251953 84.43261719 C79.3305252 80.26078332 72.46898594 75.87609196 65.60913086 71.47583008 C56.06144289 65.36461353 46.37822356 59.48311993 36.67041016 53.63061523 C33.09644594 51.44826865 29.55106383 49.21941489 26 47 C26 63.17 26 79.34 26 96 C27.65 96.66 29.3 97.32 31 98 C32.9793026 99.11594211 34.93599931 100.27244614 36.875 101.45703125 C37.43231308 101.7961705 37.98962616 102.13530975 38.56382751 102.48472595 C40.37820497 103.59023298 42.18914657 104.70123161 44 105.8125 C45.26620105 106.58586806 46.5325601 107.35897749 47.79907227 108.13183594 C53.46684968 111.59382912 59.12401577 115.07306063 64.77734375 118.55859375 C65.64528564 119.09178223 66.51322754 119.6249707 67.4074707 120.17431641 C69.09352781 121.22438034 70.76805737 122.29318501 72.43041992 123.38037109 C76.83787205 126.23375551 81.04553608 128.487426 85.9609375 130.35546875 C92.06188702 132.90312902 97.40959467 135.22250994 101 141 C106.44096043 159.44570713 102.13856893 185.51426715 93.3125 202.25 C92.97001221 202.91273926 92.62752441 203.57547852 92.2746582 204.25830078 C84.83159593 218.15448625 73.31950336 228.23313304 60.44140625 236.9453125 C59.61686447 237.50613525 58.79232269 238.06695801 57.9427948 238.64477539 C49.17725849 244.58940359 40.34111397 250.42704445 31.48901367 256.24169922 C28.77451504 258.02495373 26.06194907 259.81112009 23.34960938 261.59765625 C21.59386035 262.75277191 19.83800498 263.90772595 18.08203125 265.0625 C17.28610062 265.58650391 16.49016998 266.11050781 15.67012024 266.65039062 C13.45112585 268.10713526 11.22731806 269.55601904 9 271 C7.875298 271.73259033 7.875298 271.73259033 6.72787476 272.47998047 C6.01160919 272.93904785 5.29534363 273.39811523 4.55737305 273.87109375 C3.92002731 274.28157959 3.28268158 274.69206543 2.62602234 275.11499023 C1 276 1 276 -1 276 C-1.37227028 267.43788897 -1.65571849 258.87920073 -1.82899475 250.31097603 C-1.91220933 246.33102109 -2.02479138 242.35663186 -2.20703125 238.37988281 C-3.35182052 212.73711049 -3.35182052 212.73711049 0.49316406 206.62731934 C4.09578708 203.10728404 8.12193981 201.31760126 12.86767578 199.80023193 C15.96354899 198.63839333 18.54188385 196.85134933 21.25366211 194.98196411 C23 194 23 194 26 194 C26 205.22 26 216.44 26 228 C56.78684957 209.31439653 56.78684957 209.31439653 73.53710938 178.6472168 C73.99217851 176.04473018 74.20311644 173.55600298 74.31640625 170.91796875 C74.35830078 169.98662109 74.40019531 169.05527344 74.44335938 168.09570312 C74.48267578 167.13599609 74.52199219 166.17628906 74.5625 165.1875 C74.62727539 163.71893555 74.62727539 163.71893555 74.69335938 162.22070312 C74.7990226 159.81392973 74.90112327 157.40706017 75 155 C74.29254639 154.73912598 73.58509277 154.47825195 72.85620117 154.20947266 C69.80808087 152.91873088 67.12486901 151.37474547 64.30078125 149.6484375 C63.18670898 148.96982666 62.07263672 148.29121582 60.92480469 147.59204102 C59.72062872 146.85314858 58.51652905 146.1141318 57.3125 145.375 C56.06299678 144.6116174 54.81331969 143.84851932 53.56347656 143.08569336 C50.33843749 141.11571152 47.11652103 139.14068845 43.89581299 137.16363525 C42.06493061 136.0398539 40.23348506 134.91699656 38.40185547 133.79443359 C22.89115206 124.2863823 22.89115206 124.2863823 19.46580505 122.05506897 C17.02989582 120.52940035 14.60607722 119.38991748 11.9430542 118.3139801 C7.29984855 116.25678835 3.18017616 114.05376129 0 110 C-2.89771771 102.14070194 -1.85654888 93.17870241 -1.5625 84.9609375 C-1.53262937 82.509078 -1.50986745 80.05712249 -1.49389648 77.60513306 C-1.43301983 71.17454834 -1.27607501 64.7498166 -1.09863281 58.3215332 C-0.93446831 51.75292147 -0.86178046 45.18335637 -0.78125 38.61328125 C-0.6100407 25.73970091 -0.34036314 12.8701627 0 0 Z " fill="#7A7B79" transform="translate(247,107)"/>
<path d="M0 0 C1.18335938 0.38414063 2.36671875 0.76828125 3.5859375 1.1640625 C28.38747189 9.57374151 50.36909669 23.77856709 69 42 C69.7734375 42.7115625 70.546875 43.423125 71.34375 44.15625 C100.07798931 71.22473631 118.02516504 112.79979893 119.22853088 152.02268982 C120.36852028 198.74971682 107.73057764 243.38835468 75 278 C73.87015459 279.3292299 72.74495361 280.66242507 71.625 282 C44.81175655 312.46959483 2.40674842 330.64270287 -37.63232422 333.85498047 C-82.6009889 336.60929959 -127.73964501 323.90150294 -162.28515625 294.2421875 C-164.7484005 292.01585607 -167.16286716 289.75645573 -169.53320312 287.43164062 C-171.07210882 285.92961949 -172.63627044 284.45718067 -174.203125 282.984375 C-196.40006316 261.82560099 -211.51974201 233.66926066 -219 204 C-219.19609863 203.23461914 -219.39219727 202.46923828 -219.59423828 201.68066406 C-225.62924438 176.87940432 -226.20334796 146.60506984 -219 122 C-218.72091797 121.03465332 -218.44183594 120.06930664 -218.15429688 119.07470703 C-214.29705214 106.06776659 -209.58606422 93.8575983 -203 82 C-202.18982422 80.47632813 -202.18982422 80.47632813 -201.36328125 78.921875 C-180.66949303 41.4425685 -143.41960146 11.38570468 -102.37695312 -0.77734375 C-96.30168645 -2.43872488 -90.17463367 -3.76746191 -84 -5 C-83.22366211 -5.16371094 -82.44732422 -5.32742187 -81.64746094 -5.49609375 C-54.81792398 -11.05733396 -25.89965682 -8.88528373 0 0 Z M-88 1 C-88.86254395 1.20979492 -89.72508789 1.41958984 -90.61376953 1.63574219 C-112.75745583 7.24302563 -133.96275604 16.90168907 -152 31 C-152.56041992 31.43634766 -153.12083984 31.87269531 -153.69824219 32.32226562 C-188.3947644 59.73028493 -210.3414568 97.50915852 -217.3125 141.25 C-222.24737417 184.39489991 -210.65051595 228.17855927 -184.75 263.02734375 C-182.56376171 265.74842963 -180.31022905 268.38354932 -178 271 C-177.16984375 271.96292969 -176.3396875 272.92585938 -175.484375 273.91796875 C-148.62821701 304.56095947 -109.55714582 324.32873996 -69 328 C-63.3374371 328.35802163 -57.67205859 328.39110452 -52 328.375 C-51.23886902 328.37412384 -50.47773804 328.37324768 -49.69354248 328.37234497 C-4.84857217 328.20307667 34.86643543 309.88201295 67.125 279.1875 C90.78049922 254.73685795 105.75193995 224.21541016 112 191 C112.13277344 190.30229492 112.26554687 189.60458984 112.40234375 188.88574219 C119.7508826 148.20043297 109.51690695 105.08077568 86.45947266 71.07910156 C70.5056198 48.35193346 50.49739807 30.00991762 26 17 C24.86949219 16.39414063 23.73898437 15.78828125 22.57421875 15.1640625 C-10.31186359 -1.89349776 -51.7249967 -7.92993371 -88 1 Z " fill="#7B7B79" transform="translate(294,82)"/>
<path d="M0 0 C0.33 0 0.66 0 1 0 C1 4.95 1 9.9 1 15 C-0.32 15.33 -1.64 15.66 -3 16 C-3 11.71 -3 7.42 -3 3 C-2.34 4.32 -1.68 5.64 -1 7 C-0.67 4.69 -0.34 2.38 0 0 Z " fill="#868684" transform="translate(412,237)"/>
</svg>
