<svg width="32" height="32" viewBox="0 0 32 32" fill="none" xmlns="http://www.w3.org/2000/svg">
  <!-- Background circle with gradient -->
  <defs>
    <linearGradient id="bgGradient" x1="0%" y1="0%" x2="100%" y2="100%">
      <stop offset="0%" style="stop-color:#3B82F6;stop-opacity:1" />
      <stop offset="100%" style="stop-color:#1E40AF;stop-opacity:1" />
    </linearGradient>
    <linearGradient id="textGradient" x1="0%" y1="0%" x2="100%" y2="100%">
      <stop offset="0%" style="stop-color:#FFFFFF;stop-opacity:1" />
      <stop offset="100%" style="stop-color:#E2E8F0;stop-opacity:1" />
    </linearGradient>
  </defs>
  
  <!-- Background circle -->
  <circle cx="16" cy="16" r="15" fill="url(#bgGradient)" stroke="#1E3A8A" stroke-width="2"/>
  
  <!-- Letter G with tech style -->
  <path d="M12 8C12 6.89543 12.8954 6 14 6H18C19.1046 6 20 6.89543 20 8V10C20 11.1046 19.1046 12 18 12H14C12.8954 12 12 12.8954 12 14V18C12 19.1046 12.8954 20 14 20H18C19.1046 20 20 19.1046 20 18V16C20 14.8954 19.1046 14 18 14H16" 
        stroke="url(#textGradient)" 
        stroke-width="2.5" 
        stroke-linecap="round" 
        stroke-linejoin="round" 
        fill="none"/>
  
  <!-- Tech accent dots -->
  <circle cx="22" cy="10" r="2" fill="#60A5FA" opacity="0.8"/>
  <circle cx="22" cy="22" r="1.5" fill="#60A5FA" opacity="0.6"/>
  <circle cx="10" cy="22" r="1.5" fill="#60A5FA" opacity="0.6"/>
</svg>
